<svg width="92" height="88" viewBox="0 0 92 88" fill="none" xmlns="http://www.w3.org/2000/svg">
<path d="M6.33511 72.4503C3.47857 78.6241 3.53232 85.3892 3.91627 88C2.61084 88 0 86.5717 0 80.8586C7.14136 64.1571 19.5812 40.199 49.2984 33.0576C74.5888 26.9801 77.5791 20.0003 80.2594 15.3578C75.3833 19.8883 73.4297 25.1139 51.572 29.1196C27.945 33.4496 12.171 49.7976 8.63874 59.6649C10.2968 12.3538 35.7295 12.4115 59.3194 10.5969C67.3054 9.98255 84.9822 7.00314 91.801 0C81.5424 51.0651 52.4382 66.3309 27.2984 63.3508C11.1021 61.4308 9.9058 64.733 6.33511 72.4503Z" fill="#CED0D6"/>
</svg>
